<?xml version="1.0" encoding="UTF-8"?>
<!DOCTYPE svg PUBLIC "-//W3C//DTD SVG 1.1//EN" "http://www.w3.org/Graphics/SVG/1.1/DTD/svg11.dtd">
<svg version="1.1" xmlns="http://www.w3.org/2000/svg" xmlns:xlink="http://www.w3.org/1999/xlink" x="0" y="0" width="201.15" height="66.435" viewBox="0, 0, 201.15, 66.435">
  <g id="レイヤー_1">
    <path d="M82.815,9.975 C82.665,9.66 82.38,9.57 82.08,9.555 C82.065,9.555 82.065,9.555 82.05,9.555 C81.585,9.51 81.36,9.51 80.835,9.81 C79.41,10.62 78.15,11.76 76.515,12.51 C74.88,13.26 73.185,13.02 71.565,12.42 C69.945,11.82 68.28,11.16 66.72,10.98 C65.16,10.8 63.81,11.04 62.445,11.22 C61.2,11.4 59.97,11.76 58.815,12.27 C57.795,12.69 57.105,13.245 56.325,13.86 C56.055,13.995 55.92,14.1 55.68,14.49 C55.395,14.955 55.275,15.195 54.87,15.885 C54.465,16.575 54.195,16.86 53.595,17.955 C52.41,20.055 51.33,22.2 49.695,24.63 C48.06,27.06 45.735,30.87 44.055,33.51 C42.375,36.15 40.455,38.85 38.7,41.13 C37.035,43.275 35.235,45.315 33.315,47.235 C31.56,48.975 29.64,50.535 27.555,51.87 C25.62,53.145 23.91,53.445 21.915,53.775 C20.88,53.955 20.175,53.655 19.365,53.52 C18.555,53.385 17.94,53.13 17.445,52.695 C16.65,51.975 16.17,51.435 16.29,50.355 C16.425,49.05 16.785,48.285 17.955,47.4 C19.125,46.515 20.85,46.155 22.455,46.125 C23.085,46.125 23.7,46.2 24.315,46.35 C24.915,46.5 25.485,46.695 26.055,46.935 C26.565,47.16 27.06,47.4 27.555,47.685 C27.93,47.91 28.29,48.18 28.635,48.465 C28.965,48.72 29.16,48.84 29.52,48.825 C29.865,48.84 30.195,48.69 30.42,48.42 C30.645,48.195 30.765,47.865 30.72,47.55 C30.675,47.175 30.69,46.995 30.33,46.65 C29.925,46.275 29.475,45.945 28.995,45.66 C28.395,45.285 27.78,44.955 27.135,44.67 C26.4,44.355 25.65,44.1 24.885,43.905 C24.09,43.71 23.28,43.62 22.455,43.605 C21.21,43.62 19.965,43.815 18.765,44.205 C17.775,44.55 16.845,45.075 16.035,45.75 C15.315,46.32 14.73,47.07 14.37,47.925 C13.995,48.765 13.635,49.5 13.815,50.37 C14.175,52.2 14.295,53.445 16.065,54.57 C17.835,55.695 19.605,56.355 22.005,56.19 C24.03,56.055 26.145,55.575 28.2,54.33 C30.255,53.085 32.445,51.525 34.38,49.65 C36.42,47.7 38.325,45.6 40.095,43.38 C41.94,41.025 43.875,38.385 45.675,35.655 C47.475,32.925 49.77,29.025 51.555,26.385 C53.205,23.955 54.735,21.42 56.115,18.825 C56.625,17.865 56.955,17.46 57.27,16.86 C57.45,16.545 57.645,16.23 57.87,15.93 C59.175,15.15 59.91,14.265 61.59,13.92 C63.3,13.575 64.74,13.335 66.855,13.575 C68.97,13.815 71.715,15.285 74.145,15.42 C75.81,15.51 77.715,14.505 79.365,13.515 C78.75,14.715 77.97,15.81 77.04,16.77 C75.39,18.495 73.32,19.68 70.77,19.755 C68.22,19.83 65.22,18.915 62.76,19.365 C60.3,19.815 58.575,20.865 56.385,21.69 C55.92,21.855 55.5,22.11 55.14,22.44 C54.78,22.77 54.66,23.16 54.585,23.595 C54.51,24.03 54.42,24.375 54.885,24.63 C55.35,24.885 55.665,24.885 56.25,24.645 C57.675,24.06 58.74,23.235 60.3,22.605 C61.86,21.975 63.24,21.345 65.205,21.39 C67.17,21.435 69.975,22.035 72.06,21.84 C74.145,21.645 75.93,20.985 77.43,19.695 C78.93,18.405 80.085,16.665 81.195,15.24 C82.305,13.815 82.755,12.57 83.1,11.01 C83.22,10.44 83.01,10.395 82.815,9.975 z M177.84,9.975 C177.69,9.66 177.405,9.57 177.105,9.555 C177.09,9.555 177.09,9.555 177.075,9.555 C176.61,9.51 176.385,9.51 175.86,9.81 C174.435,10.62 173.175,11.76 171.54,12.51 C169.905,13.26 168.21,13.02 166.59,12.42 C164.97,11.82 163.305,11.16 161.745,10.98 C160.185,10.8 158.835,11.04 157.47,11.22 C156.225,11.4 154.995,11.76 153.84,12.27 C152.82,12.69 152.13,13.245 151.35,13.86 C151.08,13.995 150.945,14.1 150.705,14.49 C150.42,14.955 150.3,15.195 149.91,15.885 C149.52,16.575 149.235,16.86 148.635,17.955 C147.45,20.055 146.37,22.2 144.735,24.63 C143.1,27.06 140.775,30.87 139.095,33.51 C137.415,36.15 135.465,38.85 133.71,41.145 C132.045,43.29 130.245,45.33 128.325,47.25 C126.57,48.99 124.65,50.55 122.565,51.885 C120.63,53.16 118.92,53.46 116.925,53.79 C115.89,53.97 115.17,53.67 114.375,53.535 C113.58,53.4 112.95,53.145 112.455,52.71 C111.66,51.99 111.195,51.45 111.3,50.37 C111.435,49.065 111.795,48.3 112.965,47.415 C114.135,46.53 115.86,46.17 117.465,46.14 C118.095,46.14 118.71,46.215 119.31,46.365 C119.91,46.515 120.48,46.71 121.05,46.95 C121.56,47.175 122.055,47.415 122.55,47.7 C122.925,47.925 123.285,48.195 123.63,48.48 C123.96,48.735 124.155,48.855 124.515,48.84 C124.86,48.855 125.19,48.705 125.415,48.435 C125.64,48.21 125.76,47.88 125.715,47.565 C125.67,47.19 125.685,47.01 125.325,46.665 C124.92,46.29 124.47,45.96 123.99,45.675 C123.39,45.3 122.775,44.97 122.13,44.685 C121.395,44.37 120.645,44.115 119.88,43.92 C119.085,43.725 118.275,43.635 117.45,43.62 C116.205,43.635 114.96,43.83 113.76,44.22 C112.77,44.565 111.84,45.09 111.03,45.765 C110.31,46.335 109.725,47.085 109.365,47.94 C108.99,48.78 108.63,49.515 108.81,50.385 C109.17,52.215 109.29,53.46 111.06,54.585 C112.83,55.71 114.6,56.37 117,56.205 C119.025,56.07 121.14,55.59 123.195,54.345 C125.25,53.1 127.425,51.54 129.375,49.665 C131.415,47.715 133.32,45.615 135.09,43.395 C136.935,41.04 138.87,38.4 140.67,35.67 C142.47,32.94 144.75,29.04 146.55,26.4 C148.2,23.97 149.73,21.435 151.11,18.84 C151.62,17.88 151.95,17.475 152.265,16.875 C152.445,16.56 152.64,16.245 152.85,15.945 C154.155,15.165 154.89,14.28 156.57,13.935 C158.28,13.59 159.72,13.35 161.835,13.59 C163.95,13.83 166.695,15.3 169.125,15.435 C170.79,15.525 172.695,14.52 174.345,13.53 C173.73,14.73 172.95,15.825 172.02,16.785 C170.37,18.51 168.3,19.695 165.75,19.77 C163.2,19.845 160.2,18.93 157.74,19.38 C155.28,19.83 153.555,20.88 151.365,21.705 C150.9,21.87 150.48,22.125 150.12,22.455 C149.76,22.785 149.64,23.175 149.565,23.61 C149.49,24.045 149.4,24.39 149.85,24.645 C150.3,24.9 150.63,24.9 151.215,24.66 C152.625,24.075 153.705,23.25 155.265,22.62 C156.825,21.99 158.205,21.36 160.17,21.405 C162.135,21.45 164.94,22.05 167.025,21.855 C169.11,21.66 170.895,21 172.395,19.71 C173.895,18.42 175.05,16.68 176.16,15.255 C177.27,13.83 177.705,12.585 178.065,11.025 C178.245,10.44 178.035,10.395 177.84,9.975 L177.84,9.975 z M49.23,51.54 L38.985,51.54 C38.31,51.555 37.74,51.015 37.74,50.325 C37.74,50.31 37.74,50.295 37.74,50.28 C37.74,49.935 37.86,49.605 38.1,49.365 C38.325,49.11 38.655,48.975 38.985,48.975 L49.23,48.975 C49.575,48.975 49.89,49.11 50.115,49.365 C50.355,49.605 50.475,49.935 50.475,50.28 C50.49,50.955 49.935,51.525 49.26,51.525 C49.245,51.54 49.245,51.54 49.23,51.54 z M49.305,36.705 C49.275,36.615 49.245,36.51 49.215,36.42 C49.17,36.3 49.14,36.165 49.125,36.03 C49.155,35.7 49.29,35.385 49.53,35.145 C49.77,34.905 50.085,34.77 50.415,34.785 L56.385,34.59 C56.715,34.62 57.03,34.755 57.27,34.995 C57.51,35.235 57.645,35.55 57.63,35.88 C57.63,36.225 57.51,36.555 57.27,36.795 C57.03,37.05 56.685,37.185 56.325,37.185 L50.4,37.335 C50.175,37.365 49.95,37.32 49.77,37.185 C49.59,37.065 49.425,36.9 49.305,36.705 L49.305,36.705 z M68.16,31.575 C68.13,31.245 67.935,30.96 67.65,30.81 C67.41,30.57 67.05,30.465 66.705,30.54 C66.39,30.6 66.105,30.78 65.91,31.05 L47.49,56.4 C47.295,56.64 47.22,56.955 47.28,57.27 C47.34,57.615 47.52,57.915 47.79,58.14 C47.895,58.215 48.015,58.26 48.12,58.305 C48.225,58.35 48.345,58.38 48.45,58.38 C48.87,58.38 49.26,58.185 49.515,57.855 L67.95,32.535 C68.13,32.25 68.22,31.905 68.16,31.575 L68.16,31.575 z M67.875,33.87 C67.86,34.215 67.98,34.545 68.235,34.785 C68.43,35.04 68.73,35.205 69.06,35.22 C69.39,35.265 69.72,35.16 69.975,34.935 C70.425,34.545 70.92,34.2 71.445,33.9 C72.075,33.525 72.66,33.345 73.2,33.345 C73.23,33.66 73.08,34.305 72.75,35.265 C72.42,36.225 71.775,37.425 70.845,38.865 C70.29,39.735 69.675,40.56 69.015,41.34 C68.43,42.03 67.8,42.675 67.14,43.29 C66.615,43.77 66.03,44.205 65.415,44.565 C64.875,44.865 64.395,45.015 63.975,45.015 C63.915,45.03 63.855,45.015 63.81,44.985 C63.795,44.97 63.765,44.955 63.735,44.955 C63.66,44.85 63.63,44.73 63.645,44.595 C63.66,44.37 63.705,44.16 63.795,43.95 C63.9,43.635 63.855,43.29 63.705,42.99 C63.54,42.69 63.255,42.465 62.94,42.36 C62.67,42.195 62.34,42.195 62.07,42.36 C61.77,42.525 61.545,42.81 61.44,43.125 C61.05,44.37 61.155,45.465 61.725,46.395 C61.98,46.74 62.325,47.025 62.715,47.205 C63.12,47.4 63.555,47.49 63.99,47.49 C64.785,47.49 65.565,47.28 66.27,46.92 C67.035,46.53 67.755,46.05 68.415,45.48 C69.075,44.91 69.705,44.31 70.29,43.65 C70.875,43.005 71.355,42.435 71.73,41.925 C72.18,41.325 72.645,40.65 73.125,39.93 C73.605,39.21 74.04,38.475 74.43,37.695 C74.805,36.96 75.105,36.21 75.375,35.445 C75.6,34.8 75.72,34.11 75.735,33.435 C75.735,33.09 75.69,32.76 75.585,32.43 C75.495,32.13 75.315,31.86 75.06,31.665 C74.925,31.425 74.715,31.245 74.49,31.11 C74.205,30.93 73.785,30.84 73.245,30.84 C72.66,30.84 72.09,30.945 71.535,31.155 C71.01,31.35 70.5,31.575 70.02,31.845 C69.63,32.055 69.255,32.31 68.91,32.595 C68.625,32.835 68.445,32.985 68.385,33.045 C68.055,33.24 67.875,33.54 67.875,33.87 z M94.455,32.775 C94.14,31.845 93.555,31.035 92.775,30.45 C91.995,29.88 91.05,29.595 90.075,29.61 C89.115,29.625 88.17,29.835 87.285,30.21 C86.235,30.645 85.23,31.2 84.3,31.86 C83.25,32.61 82.275,33.48 81.39,34.425 C80.43,35.445 79.575,36.54 78.81,37.71 C77.79,39.285 77.13,40.755 76.83,42.12 C76.53,43.485 76.65,44.685 77.16,45.675 C77.925,46.89 79.065,47.505 80.58,47.505 C82.065,47.49 83.52,47.1 84.81,46.35 C86.175,45.585 87.435,44.625 88.515,43.5 C89.565,42.42 90.465,41.205 91.185,39.87 C91.875,38.595 92.265,37.425 92.37,36.36 C92.43,35.34 92.22,34.485 91.725,33.81 C91.23,33.135 90.51,32.715 89.58,32.565 C89.265,32.535 88.95,32.61 88.695,32.805 C88.425,32.985 88.26,33.3 88.245,33.615 C88.17,33.945 88.245,34.275 88.44,34.545 C88.635,34.815 88.935,34.995 89.265,35.055 C89.43,35.085 89.595,35.16 89.745,35.25 C89.91,35.34 89.955,35.655 89.895,36.165 C89.835,36.96 89.52,37.875 88.95,38.88 C88.35,39.93 87.615,40.905 86.76,41.76 C85.875,42.66 84.885,43.425 83.805,44.07 C82.725,44.7 81.66,45 80.61,45 C80.16,45 79.86,44.925 79.725,44.79 C79.605,44.685 79.515,44.565 79.455,44.43 C79.2,44.04 79.155,43.395 79.305,42.465 C79.455,41.535 79.995,40.365 80.895,38.955 C81.57,37.875 82.35,36.885 83.235,35.985 C84,35.19 84.84,34.47 85.74,33.825 C86.475,33.3 87.27,32.85 88.095,32.505 C88.725,32.235 89.4,32.07 90.09,32.055 C91.11,32.055 91.785,32.565 92.115,33.585 C92.22,33.9 92.445,34.17 92.745,34.335 C93.03,34.485 93.36,34.485 93.66,34.365 C93.99,34.23 94.26,33.99 94.425,33.69 C94.575,33.405 94.59,33.06 94.455,32.775 z M86.235,49.005 L57.645,49.005 C57.33,49.005 57.03,49.14 56.82,49.395 C56.595,49.65 56.475,49.965 56.49,50.31 C56.475,50.64 56.595,50.955 56.82,51.195 C57.03,51.435 57.33,51.555 57.645,51.555 L86.235,51.555 C86.91,51.57 87.48,51.03 87.48,50.34 C87.48,50.325 87.48,50.31 87.48,50.31 C87.48,49.965 87.36,49.635 87.12,49.395 C86.895,49.14 86.565,48.99 86.235,49.005 z M105.48,51.54 L94.65,51.54 C94.335,51.54 94.035,51.42 93.825,51.18 C93.6,50.94 93.48,50.625 93.495,50.295 C93.495,49.965 93.615,49.635 93.825,49.38 C94.02,49.14 94.32,48.99 94.65,48.99 L105.48,48.99 C105.825,48.99 106.14,49.125 106.365,49.38 C106.605,49.62 106.725,49.95 106.725,50.295 C106.74,50.97 106.185,51.54 105.51,51.54 C105.51,51.54 105.495,51.54 105.48,51.54 z M85.455,58.365 C85.335,58.365 85.23,58.335 85.125,58.29 C85.005,58.245 84.9,58.185 84.795,58.125 C84.525,57.9 84.345,57.6 84.285,57.255 C84.24,56.955 84.315,56.64 84.495,56.385 L102.93,31.035 C103.125,30.78 103.41,30.6 103.725,30.525 C104.055,30.45 104.415,30.54 104.67,30.795 C104.955,30.945 105.15,31.245 105.18,31.56 C105.225,31.89 105.15,32.235 104.97,32.52 L86.52,57.84 C86.265,58.17 85.875,58.365 85.455,58.365 z M100.95,47.505 C100.515,47.505 100.08,47.415 99.675,47.22 C99.285,47.04 98.94,46.755 98.685,46.41 C98.1,45.48 98.01,44.4 98.4,43.14 C98.505,42.81 98.73,42.54 99.03,42.375 C99.3,42.21 99.63,42.21 99.9,42.375 C100.23,42.48 100.5,42.705 100.665,43.005 C100.83,43.305 100.86,43.65 100.755,43.965 C100.665,44.175 100.62,44.385 100.605,44.61 C100.59,44.745 100.62,44.865 100.695,44.97 C100.725,44.97 100.74,44.97 100.77,45 C100.83,45.03 100.875,45.03 100.935,45.03 C101.355,45.03 101.835,44.88 102.375,44.58 C102.99,44.22 103.575,43.8 104.1,43.305 C104.775,42.705 105.39,42.045 105.975,41.355 C106.635,40.575 107.25,39.75 107.805,38.88 C108.735,37.44 109.365,36.24 109.71,35.28 C110.04,34.32 110.205,33.675 110.16,33.36 C109.62,33.36 109.035,33.54 108.405,33.915 C107.88,34.215 107.385,34.56 106.935,34.95 C106.68,35.175 106.35,35.28 106.02,35.235 C105.69,35.22 105.39,35.055 105.195,34.8 C104.94,34.56 104.82,34.23 104.835,33.885 C104.835,33.555 105.015,33.24 105.285,33.075 C105.345,33.015 105.525,32.865 105.81,32.625 C106.155,32.34 106.53,32.1 106.92,31.875 C107.4,31.605 107.91,31.365 108.435,31.185 C108.975,30.975 109.56,30.87 110.145,30.87 C110.685,30.87 111.105,30.96 111.39,31.14 C111.63,31.275 111.825,31.455 111.96,31.695 C112.215,31.89 112.395,32.16 112.485,32.46 C112.575,32.79 112.635,33.12 112.635,33.465 C112.62,34.155 112.5,34.83 112.275,35.475 C112.02,36.255 111.705,37.005 111.345,37.725 C110.955,38.49 110.52,39.24 110.04,39.96 C109.56,40.68 109.095,41.34 108.645,41.955 C108.255,42.465 107.775,43.05 107.205,43.68 C106.62,44.325 105.99,44.94 105.33,45.51 C104.67,46.08 103.95,46.56 103.185,46.95 C102.54,47.31 101.76,47.505 100.95,47.505 z M159.18,40.605 C159.03,40.68 158.88,40.785 158.745,40.89 C158.295,41.175 157.74,41.535 157.08,41.97 C156.42,42.405 155.73,42.825 155.01,43.245 C154.29,43.665 153.57,44.04 152.85,44.37 C152.25,44.67 151.605,44.865 150.945,44.97 C151.215,44.445 151.53,43.95 151.86,43.455 C152.28,42.825 152.79,42.15 153.405,41.385 C154.02,40.635 154.695,39.84 155.445,39.015 C156.195,38.19 157.005,37.35 157.875,36.525 C158.13,36.285 158.265,35.955 158.265,35.61 C158.28,35.28 158.13,34.965 157.875,34.74 C157.41,34.245 156.63,34.23 156.15,34.695 C156.135,34.71 156.12,34.725 156.105,34.74 C156.075,34.77 155.94,34.905 155.7,35.145 C155.46,35.385 155.16,35.715 154.785,36.135 C154.41,36.555 153.99,37.02 153.51,37.545 C153.03,38.07 152.55,38.625 152.07,39.195 C151.275,40.11 150.525,41.055 149.835,42.045 C149.385,42.675 149.01,43.35 148.68,44.055 C148.44,44.61 148.32,45.075 148.32,45.42 C148.305,45.735 148.38,46.05 148.515,46.335 C148.65,46.605 148.845,46.83 149.07,47.025 C149.37,47.325 149.88,47.475 150.585,47.475 C151.29,47.46 151.995,47.325 152.655,47.07 C153.48,46.77 154.29,46.425 155.055,46.02 C155.895,45.585 156.735,45.105 157.605,44.55 C158.475,44.01 159.315,43.455 160.155,42.915 C160.29,42.81 160.44,42.705 160.59,42.63 C160.725,42.555 160.86,42.48 160.98,42.39 C161.235,42.195 161.415,41.91 161.49,41.595 C161.565,41.28 161.505,40.935 161.325,40.665 C161.145,40.395 160.875,40.215 160.56,40.155 C160.23,40.065 159.885,40.14 159.6,40.32 C159.45,40.455 159.315,40.53 159.18,40.605 z M140.22,47.265 C140.505,47.505 140.85,47.67 141.21,47.745 C141.555,47.805 141.9,47.835 142.245,47.835 C143.235,47.82 144.195,47.55 145.035,47.04 C145.92,46.545 146.745,45.96 147.495,45.285 C147.975,44.85 148.005,44.115 147.585,43.65 C147.555,43.62 147.525,43.59 147.495,43.56 C147.285,43.29 146.97,43.125 146.625,43.11 C146.295,43.095 145.98,43.23 145.755,43.47 C145.095,44.115 144.33,44.655 143.49,45.06 C142.695,45.45 142.065,45.495 141.615,45.21 C141.57,45.105 141.555,44.985 141.57,44.88 C141.6,44.31 141.885,43.545 142.44,42.6 C143.055,41.55 143.79,40.575 144.6,39.675 C145.56,38.61 146.61,37.62 147.735,36.72 C148.875,35.79 150.12,34.995 151.44,34.365 C151.92,34.14 152.43,33.93 152.985,33.735 C153.525,33.54 154.095,33.42 154.665,33.375 C155.235,33.33 155.805,33.36 156.375,33.465 C156.96,33.585 157.53,33.825 158.04,34.155 C158.295,34.365 158.625,34.455 158.955,34.395 C159.27,34.335 159.57,34.17 159.78,33.915 C159.975,33.645 160.05,33.3 159.99,32.985 C159.945,32.655 159.765,32.37 159.48,32.19 C158.265,31.335 156.825,30.87 155.34,30.87 C153.795,30.855 152.13,31.245 150.33,32.04 C148.92,32.745 147.6,33.585 146.385,34.59 C145.11,35.61 143.91,36.72 142.8,37.92 C141.795,39 140.895,40.2 140.16,41.475 C139.47,42.675 139.095,43.74 139.035,44.67 C139.005,45.405 139.125,45.975 139.425,46.395 C139.62,46.755 139.89,47.04 140.22,47.265 z M173.31,33.42 C173.625,33.51 173.955,33.42 174.195,33.21 C174.87,32.715 175.59,32.28 176.34,31.89 C176.835,31.65 177.27,31.59 177.66,31.725 C177.705,31.86 177.705,32.01 177.69,32.16 C177.645,32.52 177.54,32.865 177.405,33.195 C177.15,33.825 176.865,34.425 176.535,35.025 C176.13,35.775 175.575,36.705 174.87,37.785 C174.39,38.52 173.88,39.27 173.325,40.02 C172.785,40.77 172.245,41.49 171.735,42.18 C171.225,42.87 170.745,43.5 170.295,44.07 C169.845,44.64 169.485,45.12 169.185,45.51 C168.945,45.75 168.825,46.11 168.87,46.44 C168.9,46.74 169.05,47.025 169.275,47.235 C169.5,47.43 169.8,47.535 170.085,47.52 C170.265,47.52 170.43,47.46 170.595,47.37 C170.775,47.28 170.94,47.16 171.105,47.04 C172.875,44.805 174.36,42.81 175.575,41.085 C176.625,39.63 177.6,38.115 178.485,36.555 C179.205,35.265 179.7,34.17 179.955,33.27 C180.21,32.37 180.255,31.62 180.105,31.02 C179.955,30.645 179.745,30.315 179.475,30.015 C179.22,29.73 178.89,29.52 178.515,29.445 C178.005,29.265 177.465,29.19 176.925,29.235 C176.415,29.28 175.905,29.4 175.44,29.595 C174.96,29.79 174.495,30.045 174.075,30.345 C173.64,30.645 173.235,30.945 172.845,31.23 C172.59,31.44 172.425,31.725 172.335,32.04 C172.26,32.355 172.29,32.67 172.455,32.955 C172.68,33.165 172.98,33.345 173.31,33.42 L173.31,33.42 z M159.885,45.855 C159.93,46.185 160.095,46.485 160.335,46.695 C160.56,46.86 160.83,46.95 161.1,46.935 C161.475,46.935 161.835,46.755 162.06,46.455 C164.4,43.485 166.26,41.04 167.64,39.15 C169.02,37.26 170.055,35.745 170.745,34.59 C171.435,33.435 171.84,32.55 171.945,31.95 C172.065,31.35 172.005,30.84 171.78,30.465 C171.6,30.15 171.36,29.88 171.075,29.655 C170.775,29.4 170.295,29.265 169.65,29.265 C169.305,29.265 168.975,29.385 168.735,29.625 C168.48,29.85 168.345,30.18 168.345,30.51 C168.33,30.81 168.45,31.095 168.66,31.305 C168.87,31.515 169.125,31.65 169.41,31.71 C169.215,32.28 168.75,33.15 167.985,34.275 C167.235,35.415 166.38,36.63 165.435,37.95 C164.49,39.255 163.53,40.545 162.57,41.82 C161.61,43.08 160.8,44.13 160.17,44.97 C159.945,45.195 159.825,45.525 159.885,45.855 L159.885,45.855 z M189.69,40.695 C189.525,40.44 189.255,40.245 188.94,40.185 C188.595,40.11 188.25,40.17 187.95,40.35 L187.185,40.875 C186.795,41.13 186.315,41.445 185.715,41.835 C185.115,42.225 184.5,42.6 183.84,42.99 C183.18,43.38 182.52,43.725 181.86,44.04 C181.275,44.325 180.675,44.58 180.06,44.805 C180.495,44.16 180.96,43.53 181.455,42.93 C182.025,42.225 182.58,41.55 183.09,40.92 C185.085,38.52 186.6,36.525 187.635,34.935 C188.67,33.345 189,31.995 188.625,30.885 C188.505,30.585 188.34,30.315 188.145,30.075 C187.89,29.73 187.455,29.46 186.84,29.31 C185.79,29.04 184.695,29.175 183.735,29.67 C182.805,30.15 181.92,30.705 181.065,31.32 C180.78,31.485 180.585,31.785 180.555,32.115 C180.495,32.445 180.57,32.775 180.765,33.045 C180.96,33.315 181.275,33.495 181.605,33.555 C181.92,33.615 182.235,33.525 182.49,33.345 C183.33,32.775 184.035,32.325 184.605,31.995 C185.19,31.68 185.715,31.575 186.195,31.71 L186.24,31.71 C186.21,31.98 186.15,32.265 186.075,32.52 C185.955,32.94 185.58,33.585 184.95,34.485 C184.41,35.25 183.795,36.045 183.15,36.855 C182.49,37.665 181.815,38.49 181.11,39.33 C179.475,41.31 178.32,42.825 177.675,43.86 C177.03,44.895 176.865,45.795 177.21,46.53 C177.33,46.755 177.48,46.965 177.675,47.13 C177.915,47.37 178.335,47.49 178.95,47.49 C179.67,47.475 180.39,47.34 181.065,47.085 C181.89,46.785 182.7,46.44 183.48,46.035 C184.305,45.6 185.16,45.12 186.03,44.565 C186.9,44.025 187.74,43.47 188.58,42.93 C188.685,42.81 188.82,42.72 188.97,42.645 C189.105,42.57 189.24,42.495 189.36,42.405 C189.615,42.21 189.795,41.925 189.87,41.61 C189.945,41.31 189.885,40.965 189.69,40.695 L189.69,40.695 z M182.805,49.005 L132.045,49.005 C131.7,49.005 131.385,49.14 131.16,49.395 C130.92,49.635 130.8,49.965 130.8,50.31 C130.785,50.985 131.34,51.555 132.015,51.555 C132.03,51.555 132.045,51.555 132.045,51.555 L182.82,51.555 C183.165,51.555 183.495,51.435 183.735,51.195 C183.99,50.97 184.125,50.64 184.125,50.31 C184.095,49.59 183.525,49.005 182.805,49.005 L182.805,49.005 z M193.065,66.435 L10.02,66.435 C9.345,66.435 8.805,65.895 8.805,65.235 C8.805,64.575 9.345,64.02 10.005,64.02 C10.005,64.02 10.005,64.02 10.005,64.02 L193.05,64.02 C196.17,64.02 198.705,61.5 198.705,58.38 L198.705,8.07 C198.705,4.95 196.17,2.43 193.05,2.43 L8.085,2.43 C4.965,2.43 2.43,4.95 2.43,8.07 L2.43,43.29 C2.43,46.41 4.965,48.93 8.085,48.93 C8.76,48.93 9.3,49.47 9.3,50.13 C9.3,50.79 8.76,51.345 8.1,51.345 C8.1,51.345 8.1,51.345 8.1,51.345 C3.645,51.345 0.03,47.73 0.015,43.275 L0.015,8.07 C0.015,3.6 3.63,-0 8.085,-0 L193.065,-0 C197.52,-0 201.135,3.615 201.15,8.07 L201.15,58.365 C201.135,62.82 197.52,66.435 193.065,66.435 L193.065,66.435 z" fill="#000000" id="シェイプ_3"/>
  </g>
</svg>
